HIERARCHY
ROOT Hips
{
	OFFSET 0.000000 0.000000 0.000000
	CHANNELS 6 Xposition Yposition Zposition Xrotation Yrotation Zrotation
	JOINT LeftUpLeg_virtual
	{
		OFFSET 0.000000 0.000000 0.000000
		CHANNELS 3 Xrotation Yrotation Zrotation
		JOINT LeftUpLeg
		{
			OFFSET 11.394100 -6.187798 -0.413800
			CHANNELS 3 Xrotation Yrotation Zrotation
			JOINT LeftLeg
			{
				OFFSET 0.430247 -32.302673 3.732800
				CHANNELS 3 Xrotation Yrotation Zrotation
				JOINT LeftFoot
				{
					OFFSET -0.430247 -48.264931 -6.423300
					CHANNELS 3 Xrotation Yrotation Zrotation
					JOINT LeftToeBase
					{
						OFFSET 4.230900 -16.068199 23.438400
						CHANNELS 3 Xrotation Yrotation Zrotation
						JOINT LeftToe_End
						{
							OFFSET 4.510700 0.695400 19.974600
							CHANNELS 3 Xrotation Yrotation Zrotation
							End Site
							{
								OFFSET 0 0 0
							}
						}
					}
				}
			}
		}
	}
	JOINT RightUpLeg_virtual
	{
		OFFSET 0.000000 0.000000 0.000000
		CHANNELS 3 Xrotation Yrotation Zrotation
		JOINT RightUpLeg
		{
			OFFSET -11.333700 -6.187798 -0.413800
			CHANNELS 3 Xrotation Yrotation Zrotation
			JOINT RightLeg
			{
				OFFSET -0.430392 -32.302628 3.733000
				CHANNELS 3 Xrotation Yrotation Zrotation
				JOINT RightFoot
				{
					OFFSET 0.430392 -48.264973 -6.423500
					CHANNELS 3 Xrotation Yrotation Zrotation
					JOINT RightToeBase
					{
						OFFSET -4.230900 -16.068199 23.438400
						CHANNELS 3 Xrotation Yrotation Zrotation
						JOINT RightToe_End
						{
							OFFSET -4.510700 0.695400 19.974600
							CHANNELS 3 Xrotation Yrotation Zrotation
							End Site
							{
								OFFSET 0 0 0
							}
						}
					}
				}
			}
		}
	}
	JOINT Spine_virtual
	{
		OFFSET 0.000000 0.000000 0.000000
		CHANNELS 3 Xrotation Yrotation Zrotation
		JOINT Spine
		{
			OFFSET -0.002400 12.777504 0.315300
			CHANNELS 3 Xrotation Yrotation Zrotation
			JOINT Spine1
			{
				OFFSET -0.002067 5.816869 0.032633
				CHANNELS 3 Xrotation Yrotation Zrotation
				JOINT Spine1_split
				{
					OFFSET -0.002067 5.816869 0.032633
					CHANNELS 3 Xrotation Yrotation Zrotation
					JOINT Spine2
					{
						OFFSET -0.002067 5.816869 0.032633
						CHANNELS 3 Xrotation Yrotation Zrotation
						JOINT Neck_virtual
						{
							OFFSET 0.000000 0.000000 0.000000
							CHANNELS 3 Xrotation Yrotation Zrotation
							JOINT Neck
							{
								OFFSET -0.003700 21.199493 -0.826900
								CHANNELS 3 Xrotation Yrotation Zrotation
								JOINT Head
								{
									OFFSET 0.000000 20.442200 4.834800
									CHANNELS 3 Xrotation Yrotation Zrotation
									JOINT HeadTop_End
									{
										OFFSET 0.000000 34.668396 4.968400
										CHANNELS 3 Xrotation Yrotation Zrotation
										End Site
										{
											OFFSET 0 0 0
										}
									}
								}
							}
						}
						JOINT LeftShoulder_virtual
						{
							OFFSET 0.000000 0.000000 0.000000
							CHANNELS 3 Xrotation Yrotation Zrotation
							JOINT LeftShoulder
							{
								OFFSET 3.288150 8.794197 -1.372250
								CHANNELS 3 Xrotation Yrotation Zrotation
								JOINT LeftShoulder_split
								{
									OFFSET 3.288150 8.794197 -1.372250
									CHANNELS 3 Xrotation Yrotation Zrotation
									JOINT LeftArm
									{
										OFFSET 11.953299 -2.279007 -0.146200
										CHANNELS 3 Xrotation Yrotation Zrotation
										JOINT LeftForeArm
										{
											OFFSET 18.448900 0.000000 0.000000
											CHANNELS 3 Xrotation Yrotation Zrotation
											JOINT LeftHand
											{
												OFFSET 29.527798 0.000000 0.000000
												CHANNELS 3 Xrotation Yrotation Zrotation
												End Site
												{
													OFFSET 0 0 0
												}
											}
										}
									}
								}
							}
						}
						JOINT RightShoulder_virtual
						{
							OFFSET 0.000000 0.000000 0.000000
							CHANNELS 3 Xrotation Yrotation Zrotation
							JOINT RightShoulder
							{
								OFFSET -3.249400 8.794197 -1.372250
								CHANNELS 3 Xrotation Yrotation Zrotation
								JOINT RightShoulder_split
								{
									OFFSET -3.249400 8.794197 -1.372250
									CHANNELS 3 Xrotation Yrotation Zrotation
									JOINT RightArm
									{
										OFFSET -11.953299 -2.279007 -0.146200
										CHANNELS 3 Xrotation Yrotation Zrotation
										JOINT RightForeArm
										{
											OFFSET -18.448900 0.000000 0.000000
											CHANNELS 3 Xrotation Yrotation Zrotation
											JOINT RightHand
											{
												OFFSET -29.527802 0.000000 0.000000
												CHANNELS 3 Xrotation Yrotation Zrotation
												End Site
												{
													OFFSET 0 0 0
												}
											}
										}
									}
								}
							}
						}
					}
				}
			}
		}
	}
}
MOTION
Frames: 4
Frame Time: 0.03333333
16.407749 27.545677 -30.337526 0.000000 0.000000 0.000000 83.740025 1.606914 -0.030139 -9.551555 -4.287551 30.217358 40.516211 0.641205 -12.623555 29.881948 56.897136 -27.302066 1.371098 -8.971172 -7.048371 0.000000 0.000000 0.000000 83.670179 -2.568670 -0.486024 -43.914869 -41.615574 -41.630027 39.455879 24.004281 -9.388378 42.469348 -48.271450 34.841977 32.024650 16.358337 10.506409 0.000000 0.000000 0.000000 91.284044 0.555177 -1.449721 17.222062 -0.187764 -1.551128 -10.055801 -2.516461 0.203176 -0.035013 0.477023 0.056515 0.000000 0.000000 0.000000 -5.941464 -0.901245 1.203953 -5.449004 0.389782 10.801732 -26.516780 -21.715693 2.427941 0.000000 0.000000 0.000000 -11.269068 -0.862164 -0.455000 -1.448764 -9.675542 4.981856 3.065449 1.381569 -5.204938 24.247839 -32.309988 -59.321819 -11.793580 -33.759569 -7.352016 0.000000 0.000000 0.000000 -7.821560 -1.849589 0.177281 7.034271 1.777879 3.317318 -22.681571 2.060350 4.169182 13.725219 15.257495 53.350611 -24.636414 17.786040 20.969417 0.000000 0.000000 0.000000 
16.407473 27.545956 -30.340136 0.000000 0.000000 0.000000 83.736740 1.608171 -0.021519 -9.547558 -4.295085 30.214284 40.518629 0.645497 -12.625545 29.897364 56.897351 -27.310856 1.378225 -8.970001 -7.053839 0.000000 0.000000 0.000000 83.658233 -2.566403 -0.484169 -43.908967 -41.617668 -41.632759 39.467852 24.001490 -9.389601 42.468149 -48.268308 34.845907 32.038126 16.360501 10.501946 0.000000 0.000000 0.000000 91.277842 0.563508 -1.448316 17.224293 -0.186268 -1.552600 -10.055488 -2.513288 0.201781 -0.034318 0.476226 0.056702 0.000000 0.000000 0.000000 -5.940943 -0.899212 1.202511 -5.449656 0.391760 10.807523 -26.508114 -21.709374 2.428226 0.000000 0.000000 0.000000 -11.266833 -0.859765 -0.458088 -1.446319 -9.689491 4.986353 3.059797 1.391967 -5.173579 24.250317 -32.303619 -59.321224 -11.797932 -33.738365 -7.351077 0.000000 0.000000 0.000000 -7.820928 -1.847172 0.177208 7.028661 1.768946 3.315299 -22.683502 2.047932 4.164597 13.699205 15.210944 53.389789 -24.648213 17.766463 20.981235 0.000000 0.000000 0.000000 
16.407692 27.548794 -30.344851 0.000000 0.000000 0.000000 83.728680 1.610496 -0.015112 -9.543943 -4.300858 30.209155 40.521392 0.656358 -12.624462 29.915255 56.899594 -27.315431 1.381721 -8.968003 -7.062598 0.000000 0.000000 0.000000 83.647346 -2.566340 -0.482288 -43.884000 -41.632428 -41.626912 39.469816 23.987399 -9.386722 42.453420 -48.276078 34.842373 32.060631 16.367473 10.492842 0.000000 0.000000 0.000000 91.268314 0.573198 -1.448201 17.229784 -0.182379 -1.554510 -10.055811 -2.509172 0.200595 -0.034018 0.476148 0.056958 0.000000 0.000000 0.000000 -5.940921 -0.895849 1.200836 -5.459550 0.390757 10.821630 -26.503354 -21.696405 2.421210 0.000000 0.000000 0.000000 -11.266140 -0.856137 -0.460481 -1.442900 -9.718365 4.994707 3.061134 1.394929 -5.151933 24.241279 -32.304391 -59.321136 -11.798319 -33.677709 -7.346289 0.000000 0.000000 0.000000 -7.820986 -1.844098 0.177577 7.013638 1.741236 3.315778 -22.691495 2.032656 4.169252 13.661070 15.145333 53.422389 -24.665801 17.716203 21.007753 0.000000 0.000000 0.000000 
16.407581 27.553276 -30.351744 0.000000 0.000000 0.000000 83.717000 1.615420 -0.011689 -9.546625 -4.306966 30.203913 40.526466 0.667933 -12.619943 29.934001 56.899707 -27.320567 1.387723 -8.965590 -7.073851 0.000000 0.000000 0.000000 83.635352 -2.566862 -0.478680 -43.851389 -41.654165 -41.620133 39.465332 23.967286 -9.381926 42.435101 -48.284953 34.841936 32.087822 16.377882 10.480295 0.000000 0.000000 0.000000 91.256108 0.581887 -1.448531 17.239310 -0.177084 -1.556442 -10.055609 -2.504114 0.199489 -0.034878 0.476489 0.057471 0.000000 0.000000 0.000000 -5.941217 -0.891165 1.198681 -5.478250 0.387941 10.841798 -26.514989 -21.677309 2.403701 0.000000 0.000000 0.000000 -11.265726 -0.851483 -0.462133 -1.438881 -9.758454 5.007698 3.063040 1.391545 -5.151914 24.220655 -32.313523 -59.319469 -11.795065 -33.581547 -7.337723 0.000000 0.000000 0.000000 -7.820595 -1.840145 0.178198 6.990572 1.699208 3.313760 -22.701913 2.026716 4.191402 13.614958 15.073509 53.435247 -24.688999 17.654548 21.047897 0.000000 0.000000 0.000000 
